<svg xmlns="http://www.w3.org/2000/svg" width="1200" height="900" viewBox="0 0 1200 900">
<defs><radialGradient id="bg" cx="50%" cy="46%" r="72%"><stop offset="0" stop-color="#D6EFEA"/><stop offset="1" stop-color="#A9DCD2"/></radialGradient><radialGradient id="sh"><stop offset="0" stop-color="#3F8C7E" stop-opacity=".5"/><stop offset=".65" stop-color="#3F8C7E" stop-opacity=".22"/><stop offset="1" stop-color="#3F8C7E" stop-opacity="0"/></radialGradient></defs>
<rect width="1200" height="900" fill="url(#bg)"/>
<circle cx="600" cy="300" r="250" fill="#FFFFFF" opacity=".28"/>
<rect x="-10" y="0" width="16" height="430" fill="#3F8C7E" opacity=".12"/>
<rect x="90" y="0" width="16" height="430" fill="#3F8C7E" opacity=".12"/>
<rect x="190" y="0" width="16" height="430" fill="#3F8C7E" opacity=".12"/>
<rect x="290" y="0" width="16" height="430" fill="#3F8C7E" opacity=".12"/>
<rect x="390" y="0" width="16" height="430" fill="#3F8C7E" opacity=".12"/>
<rect x="490" y="0" width="16" height="430" fill="#3F8C7E" opacity=".12"/>
<rect x="590" y="0" width="16" height="430" fill="#3F8C7E" opacity=".12"/>
<rect x="690" y="0" width="16" height="430" fill="#3F8C7E" opacity=".12"/>
<rect x="790" y="0" width="16" height="430" fill="#3F8C7E" opacity=".12"/>
<rect x="890" y="0" width="16" height="430" fill="#3F8C7E" opacity=".12"/>
<rect x="990" y="0" width="16" height="430" fill="#3F8C7E" opacity=".12"/>
<rect x="1090" y="0" width="16" height="430" fill="#3F8C7E" opacity=".12"/>
<rect x="1190" y="0" width="16" height="430" fill="#3F8C7E" opacity=".12"/>
<path d="M330 110H434V262Q382 252 330 262Z" fill="#24435A"/><circle cx="382" cy="190" r="22" fill="none" stroke="#FFFFFF" stroke-width="5" opacity=".75"/>
<path d="M440 110H544V262Q492 252 440 262Z" fill="#24435A"/><circle cx="492" cy="190" r="22" fill="none" stroke="#FFFFFF" stroke-width="5" opacity=".75"/>
<path d="M550 110H654V262Q602 252 550 262Z" fill="#24435A"/><circle cx="602" cy="190" r="22" fill="none" stroke="#FFFFFF" stroke-width="5" opacity=".75"/>
<path d="M660 110H764V262Q712 252 660 262Z" fill="#24435A"/><circle cx="712" cy="190" r="22" fill="none" stroke="#FFFFFF" stroke-width="5" opacity=".75"/>
<path d="M770 110H874V262Q822 252 770 262Z" fill="#24435A"/><circle cx="822" cy="190" r="22" fill="none" stroke="#FFFFFF" stroke-width="5" opacity=".75"/>
<rect x="310" y="96" width="580" height="16" rx="8" fill="#7A4A2A"/>
<path d="M170 110V170" stroke="#3A2A20" stroke-width="4"/><rect x="146" y="164" width="48" height="12" rx="4" fill="#3A2A20"/><ellipse cx="170" cy="240" rx="62" ry="74" fill="#E2453A"/><ellipse cx="154" cy="232" rx="20" ry="52" fill="#F07A64" opacity=".7"/><path d="M112 214Q170 222 228 214M110 250Q170 258 230 250M118 284Q170 292 222 284" stroke="#B8302A" stroke-width="3" fill="none"/><rect x="146" y="306" width="48" height="12" rx="4" fill="#3A2A20"/><path d="M170 318V350" stroke="#F2B544" stroke-width="5"/>
<path d="M1030 110V170" stroke="#3A2A20" stroke-width="4"/><rect x="1006" y="164" width="48" height="12" rx="4" fill="#3A2A20"/><ellipse cx="1030" cy="240" rx="62" ry="74" fill="#E2453A"/><ellipse cx="1014" cy="232" rx="20" ry="52" fill="#F07A64" opacity=".7"/><path d="M972 214Q1030 222 1088 214M970 250Q1030 258 1090 250M978 284Q1030 292 1082 284" stroke="#B8302A" stroke-width="3" fill="none"/><rect x="1006" y="306" width="48" height="12" rx="4" fill="#3A2A20"/><path d="M1030 318V350" stroke="#F2B544" stroke-width="5"/>
<rect x="46" y="300" width="28" height="430" rx="8" fill="#8DBE5A"/><path d="M46 400h28M46 520h28M46 640h28" stroke="#5E8E34" stroke-width="5"/>
<g transform="translate(60 400) rotate(-30)"><path d="M0 0C27 -18 68 -18 90 0C68 18 27 18 0 0Z" fill="#5FA341"/><path d="M7 0Q45 -2 81 0" stroke="#FFFFFF" stroke-opacity=".45" stroke-width="2.2" fill="none" stroke-linecap="round"/></g>
<g transform="translate(60 420) rotate(10)"><path d="M0 0C27 -18 68 -18 90 0C68 18 27 18 0 0Z" fill="#5FA341"/><path d="M7 0Q45 -2 81 0" stroke="#FFFFFF" stroke-opacity=".45" stroke-width="2.2" fill="none" stroke-linecap="round"/></g>
<g transform="translate(60 520) rotate(-50)"><path d="M0 0C27 -18 68 -18 90 0C68 18 27 18 0 0Z" fill="#5FA341"/><path d="M7 0Q45 -2 81 0" stroke="#FFFFFF" stroke-opacity=".45" stroke-width="2.2" fill="none" stroke-linecap="round"/></g>
<g transform="translate(60 530) rotate(0)"><path d="M0 0C27 -18 68 -18 90 0C68 18 27 18 0 0Z" fill="#5FA341"/><path d="M7 0Q45 -2 81 0" stroke="#FFFFFF" stroke-opacity=".45" stroke-width="2.2" fill="none" stroke-linecap="round"/></g>
<rect x="1126" y="300" width="28" height="430" rx="8" fill="#8DBE5A"/><path d="M1126 400h28M1126 520h28M1126 640h28" stroke="#5E8E34" stroke-width="5"/>
<g transform="translate(1140 400) rotate(210)"><path d="M0 0C27 -18 68 -18 90 0C68 18 27 18 0 0Z" fill="#5FA341"/><path d="M7 0Q45 -2 81 0" stroke="#FFFFFF" stroke-opacity=".45" stroke-width="2.2" fill="none" stroke-linecap="round"/></g>
<g transform="translate(1140 420) rotate(170)"><path d="M0 0C27 -18 68 -18 90 0C68 18 27 18 0 0Z" fill="#5FA341"/><path d="M7 0Q45 -2 81 0" stroke="#FFFFFF" stroke-opacity=".45" stroke-width="2.2" fill="none" stroke-linecap="round"/></g>
<g transform="translate(1140 520) rotate(230)"><path d="M0 0C27 -18 68 -18 90 0C68 18 27 18 0 0Z" fill="#5FA341"/><path d="M7 0Q45 -2 81 0" stroke="#FFFFFF" stroke-opacity=".45" stroke-width="2.2" fill="none" stroke-linecap="round"/></g>
<g transform="translate(1140 530) rotate(180)"><path d="M0 0C27 -18 68 -18 90 0C68 18 27 18 0 0Z" fill="#5FA341"/><path d="M7 0Q45 -2 81 0" stroke="#FFFFFF" stroke-opacity=".45" stroke-width="2.2" fill="none" stroke-linecap="round"/></g>
<rect y="540" width="1200" height="110" fill="#E8C391"/><path d="M0 570Q300 560 600 572T1200 566M0 610Q400 600 800 612T1200 606" stroke="#D6AD78" stroke-width="4" fill="none"/>
<rect y="650" width="1200" height="250" fill="#9C6B3E"/><rect y="650" width="1200" height="16" fill="#7E5530"/>
<path d="M30 680V900" stroke="#8A5C34" stroke-width="4"/>
<path d="M140 680V900" stroke="#8A5C34" stroke-width="4"/>
<path d="M250 680V900" stroke="#8A5C34" stroke-width="4"/>
<path d="M360 680V900" stroke="#8A5C34" stroke-width="4"/>
<path d="M470 680V900" stroke="#8A5C34" stroke-width="4"/>
<path d="M580 680V900" stroke="#8A5C34" stroke-width="4"/>
<path d="M690 680V900" stroke="#8A5C34" stroke-width="4"/>
<path d="M800 680V900" stroke="#8A5C34" stroke-width="4"/>
<path d="M910 680V900" stroke="#8A5C34" stroke-width="4"/>
<path d="M1020 680V900" stroke="#8A5C34" stroke-width="4"/>
<path d="M1130 680V900" stroke="#8A5C34" stroke-width="4"/>
<path d="M1240 680V900" stroke="#8A5C34" stroke-width="4"/>
<ellipse cx="600" cy="640" rx="420" ry="40" fill="url(#sh)"/>
<rect x="230" y="600" width="40" height="34" fill="#8E6236"/><rect x="930" y="600" width="40" height="34" fill="#8E6236"/><rect x="200" y="490" width="800" height="128" rx="16" fill="#B98250"/><rect x="200" y="476" width="800" height="128" rx="16" fill="#E2B67E"/><path d="M230 510Q600 498 970 512M240 580Q600 568 960 584" stroke="#CF9F66" stroke-width="4" fill="none"/>
<g transform="translate(250 520) scale(0.6)"><g transform="translate(-30 6) rotate(-20)"><path d="M-30 0C-30 -24 30 -24 30 0C20 10 -20 10 -30 0Z" fill="#F7B5B8"/><path d="M-20 -6C-10 -14 10 -14 20 -6" stroke="#FCD9DA" stroke-width="4" fill="none" stroke-linecap="round"/></g><g transform="translate(0 -6) rotate(10)"><path d="M-30 0C-30 -24 30 -24 30 0C20 10 -20 10 -30 0Z" fill="#F7B5B8"/><path d="M-20 -6C-10 -14 10 -14 20 -6" stroke="#FCD9DA" stroke-width="4" fill="none" stroke-linecap="round"/></g><g transform="translate(28 4) rotate(30)"><path d="M-30 0C-30 -24 30 -24 30 0C20 10 -20 10 -30 0Z" fill="#F7B5B8"/><path d="M-20 -6C-10 -14 10 -14 20 -6" stroke="#FCD9DA" stroke-width="4" fill="none" stroke-linecap="round"/></g><g transform="translate(-10 16) rotate(-5)"><path d="M-30 0C-30 -24 30 -24 30 0C20 10 -20 10 -30 0Z" fill="#F7B5B8"/><path d="M-20 -6C-10 -14 10 -14 20 -6" stroke="#FCD9DA" stroke-width="4" fill="none" stroke-linecap="round"/></g><g transform="translate(16 18) rotate(18)"><path d="M-30 0C-30 -24 30 -24 30 0C20 10 -20 10 -30 0Z" fill="#F7B5B8"/><path d="M-20 -6C-10 -14 10 -14 20 -6" stroke="#FCD9DA" stroke-width="4" fill="none" stroke-linecap="round"/></g></g>
<g transform="translate(255 575) scale(0.7)"><path d="M-34 10C-40 -10 -20 -26 0 -34C10 -24 30 -16 34 6C30 18 -28 20 -34 10Z" fill="#79A93A"/><path d="M-26 4C-28 -10 -12 -20 2 -26C8 -18 20 -12 24 2" fill="none" stroke="#A8CE5E" stroke-width="6" stroke-linecap="round"/></g>
<g transform="translate(360 540) rotate(-6) scale(0.62)"><ellipse cx="0" cy="40" rx="118" ry="18" fill="#000" opacity=".12"/><path d="M-112 18C-118 -24 -80 -42 0 -42C80 -42 118 -24 112 18C102 46 -102 46 -112 18Z" fill="#E9E2D3"/><path d="M-108 12C-112 -24 -78 -38 0 -38C78 -38 112 -24 108 12C96 32 -96 32 -108 12Z" fill="#FFFFFF"/><ellipse cx="50" cy="1" rx="7" ry="4" fill="none" stroke="#E4DCCB" stroke-width="2" transform="rotate(10.5 49.9 0.6)"/><ellipse cx="34" cy="12" rx="7" ry="4" fill="none" stroke="#E4DCCB" stroke-width="2" transform="rotate(-34.1 33.9 12.1)"/><ellipse cx="-58" cy="19" rx="7" ry="4" fill="none" stroke="#E4DCCB" stroke-width="2" transform="rotate(-19.6 -57.8 18.7)"/><ellipse cx="-13" cy="28" rx="7" ry="4" fill="none" stroke="#E4DCCB" stroke-width="2" transform="rotate(19.5 -13.2 28)"/><ellipse cx="8" cy="14" rx="7" ry="4" fill="none" stroke="#E4DCCB" stroke-width="2" transform="rotate(32.9 7.7 14.1)"/><ellipse cx="5" cy="28" rx="7" ry="4" fill="none" stroke="#E4DCCB" stroke-width="2" transform="rotate(-4 5 28.4)"/><ellipse cx="32" cy="14" rx="7" ry="4" fill="none" stroke="#E4DCCB" stroke-width="2" transform="rotate(22.7 32.2 14)"/><ellipse cx="-75" cy="16" rx="7" ry="4" fill="none" stroke="#E4DCCB" stroke-width="2" transform="rotate(15.3 -74.6 15.8)"/><ellipse cx="-82" cy="-5" rx="7" ry="4" fill="none" stroke="#E4DCCB" stroke-width="2" transform="rotate(-21 -81.7 -4.8)"/><ellipse cx="34" cy="0" rx="7" ry="4" fill="none" stroke="#E4DCCB" stroke-width="2" transform="rotate(39.3 34.2 0)"/><ellipse cx="-87" cy="8" rx="7" ry="4" fill="none" stroke="#E4DCCB" stroke-width="2" transform="rotate(-33.3 -86.9 8.1)"/><ellipse cx="-47" cy="10" rx="7" ry="4" fill="none" stroke="#E4DCCB" stroke-width="2" transform="rotate(-28.1 -47.1 10.1)"/><ellipse cx="9" cy="4" rx="7" ry="4" fill="none" stroke="#E4DCCB" stroke-width="2" transform="rotate(-2.5 9.4 3.7)"/><ellipse cx="17" cy="7" rx="7" ry="4" fill="none" stroke="#E4DCCB" stroke-width="2" transform="rotate(41.6 17.3 6.6)"/><ellipse cx="63" cy="8" rx="7" ry="4" fill="none" stroke="#E4DCCB" stroke-width="2" transform="rotate(26.9 62.8 8.1)"/><ellipse cx="-4" cy="-1" rx="7" ry="4" fill="none" stroke="#E4DCCB" stroke-width="2" transform="rotate(37.5 -4.3 -1.3)"/><ellipse cx="17" cy="3" rx="7" ry="4" fill="none" stroke="#E4DCCB" stroke-width="2" transform="rotate(6.7 17.4 2.6)"/><ellipse cx="-56" cy="10" rx="7" ry="4" fill="none" stroke="#E4DCCB" stroke-width="2" transform="rotate(22.3 -55.9 9.5)"/><clipPath id="c1"><path d="M-134 -14C-128 -62 -50 -74 10 -70C86 -66 138 -48 132 -6C126 10 112 2 96 -10C60 -30 -40 -26 -96 -4C-116 4 -132 6 -134 -14Z"/></clipPath><path d="M-134 -14C-128 -62 -50 -74 10 -70C86 -66 138 -48 132 -6C126 10 112 2 96 -10C60 -30 -40 -26 -96 -4C-116 4 -132 6 -134 -14Z" fill="#F27A48"/><g clip-path="url(#c1)"><path d="M-150 -40C-60 -80 60 -80 150 -40L150 -100L-150 -100Z" fill="#FF9C6E"/><path d="M-134 -80Q-114 -40 -124 10M-104 -80Q-84 -40 -94 10M-74 -80Q-54 -40 -64 10M-44 -80Q-24 -40 -34 10M-14 -80Q6 -40 -4 10M16 -80Q36 -40 26 10M46 -80Q66 -40 56 10M76 -80Q96 -40 86 10M106 -80Q126 -40 116 10" stroke="#FFD9C4" stroke-width="7" fill="none" opacity="1"/></g><path d="M-60 -58Q0 -66 50 -60" stroke="#FFFFFF" stroke-width="6" fill="none" stroke-linecap="round" opacity=".55"/></g>
<g transform="translate(480 548) rotate(-6) scale(0.62)"><ellipse cx="0" cy="40" rx="118" ry="18" fill="#000" opacity=".12"/><path d="M-112 18C-118 -24 -80 -42 0 -42C80 -42 118 -24 112 18C102 46 -102 46 -112 18Z" fill="#E9E2D3"/><path d="M-108 12C-112 -24 -78 -38 0 -38C78 -38 112 -24 108 12C96 32 -96 32 -108 12Z" fill="#FFFFFF"/><ellipse cx="69" cy="5" rx="7" ry="4" fill="none" stroke="#E4DCCB" stroke-width="2" transform="rotate(-28.9 69.2 5.2)"/><ellipse cx="-51" cy="3" rx="7" ry="4" fill="none" stroke="#E4DCCB" stroke-width="2" transform="rotate(22.6 -51.4 2.5)"/><ellipse cx="-55" cy="15" rx="7" ry="4" fill="none" stroke="#E4DCCB" stroke-width="2" transform="rotate(-33.7 -55.2 14.5)"/><ellipse cx="54" cy="7" rx="7" ry="4" fill="none" stroke="#E4DCCB" stroke-width="2" transform="rotate(-33.9 53.7 7)"/><ellipse cx="18" cy="1" rx="7" ry="4" fill="none" stroke="#E4DCCB" stroke-width="2" transform="rotate(-8.3 17.7 1.4)"/><ellipse cx="-19" cy="5" rx="7" ry="4" fill="none" stroke="#E4DCCB" stroke-width="2" transform="rotate(32.1 -18.8 5.3)"/><ellipse cx="-37" cy="25" rx="7" ry="4" fill="none" stroke="#E4DCCB" stroke-width="2" transform="rotate(28.2 -37.4 25.1)"/><ellipse cx="11" cy="25" rx="7" ry="4" fill="none" stroke="#E4DCCB" stroke-width="2" transform="rotate(-21.3 10.7 25.4)"/><ellipse cx="53" cy="20" rx="7" ry="4" fill="none" stroke="#E4DCCB" stroke-width="2" transform="rotate(-3.3 52.9 19.5)"/><ellipse cx="55" cy="12" rx="7" ry="4" fill="none" stroke="#E4DCCB" stroke-width="2" transform="rotate(19 54.5 11.6)"/><ellipse cx="-21" cy="29" rx="7" ry="4" fill="none" stroke="#E4DCCB" stroke-width="2" transform="rotate(-15.8 -21.1 29.3)"/><ellipse cx="-73" cy="5" rx="7" ry="4" fill="none" stroke="#E4DCCB" stroke-width="2" transform="rotate(32.4 -72.9 5)"/><ellipse cx="-23" cy="-5" rx="7" ry="4" fill="none" stroke="#E4DCCB" stroke-width="2" transform="rotate(-10.4 -22.7 -4.6)"/><ellipse cx="-74" cy="16" rx="7" ry="4" fill="none" stroke="#E4DCCB" stroke-width="2" transform="rotate(37.8 -74.3 15.8)"/><ellipse cx="54" cy="29" rx="7" ry="4" fill="none" stroke="#E4DCCB" stroke-width="2" transform="rotate(-20.5 53.6 28.7)"/><ellipse cx="-18" cy="1" rx="7" ry="4" fill="none" stroke="#E4DCCB" stroke-width="2" transform="rotate(13.9 -17.9 1)"/><ellipse cx="77" cy="-2" rx="7" ry="4" fill="none" stroke="#E4DCCB" stroke-width="2" transform="rotate(-12.3 76.7 -2.1)"/><ellipse cx="64" cy="28" rx="7" ry="4" fill="none" stroke="#E4DCCB" stroke-width="2" transform="rotate(39.5 63.6 27.7)"/><clipPath id="c2"><path d="M-134 -14C-128 -62 -50 -74 10 -70C86 -66 138 -48 132 -6C126 10 112 2 96 -10C60 -30 -40 -26 -96 -4C-116 4 -132 6 -134 -14Z"/></clipPath><path d="M-134 -14C-128 -62 -50 -74 10 -70C86 -66 138 -48 132 -6C126 10 112 2 96 -10C60 -30 -40 -26 -96 -4C-116 4 -132 6 -134 -14Z" fill="#F27A48"/><g clip-path="url(#c2)"><path d="M-150 -40C-60 -80 60 -80 150 -40L150 -100L-150 -100Z" fill="#FF9C6E"/><path d="M-134 -80Q-114 -40 -124 10M-104 -80Q-84 -40 -94 10M-74 -80Q-54 -40 -64 10M-44 -80Q-24 -40 -34 10M-14 -80Q6 -40 -4 10M16 -80Q36 -40 26 10M46 -80Q66 -40 56 10M76 -80Q96 -40 86 10M106 -80Q126 -40 116 10" stroke="#FFD9C4" stroke-width="7" fill="none" opacity="1"/></g><path d="M-60 -58Q0 -66 50 -60" stroke="#FFFFFF" stroke-width="6" fill="none" stroke-linecap="round" opacity=".55"/></g>
<g transform="translate(600 540) rotate(-6) scale(0.62)"><ellipse cx="0" cy="40" rx="118" ry="18" fill="#000" opacity=".12"/><path d="M-112 18C-118 -24 -80 -42 0 -42C80 -42 118 -24 112 18C102 46 -102 46 -112 18Z" fill="#E9E2D3"/><path d="M-108 12C-112 -24 -78 -38 0 -38C78 -38 112 -24 108 12C96 32 -96 32 -108 12Z" fill="#FFFFFF"/><ellipse cx="68" cy="28" rx="7" ry="4" fill="none" stroke="#E4DCCB" stroke-width="2" transform="rotate(21.8 68.4 27.6)"/><ellipse cx="-27" cy="10" rx="7" ry="4" fill="none" stroke="#E4DCCB" stroke-width="2" transform="rotate(32.7 -27.1 10.3)"/><ellipse cx="19" cy="17" rx="7" ry="4" fill="none" stroke="#E4DCCB" stroke-width="2" transform="rotate(29.5 18.8 17.4)"/><ellipse cx="-70" cy="23" rx="7" ry="4" fill="none" stroke="#E4DCCB" stroke-width="2" transform="rotate(26.4 -69.6 22.6)"/><ellipse cx="-44" cy="14" rx="7" ry="4" fill="none" stroke="#E4DCCB" stroke-width="2" transform="rotate(17.5 -44.4 13.9)"/><ellipse cx="-46" cy="17" rx="7" ry="4" fill="none" stroke="#E4DCCB" stroke-width="2" transform="rotate(-27.4 -46.2 17.3)"/><ellipse cx="-43" cy="19" rx="7" ry="4" fill="none" stroke="#E4DCCB" stroke-width="2" transform="rotate(12.6 -42.6 18.6)"/><ellipse cx="-76" cy="21" rx="7" ry="4" fill="none" stroke="#E4DCCB" stroke-width="2" transform="rotate(-44.9 -76.3 20.7)"/><ellipse cx="20" cy="15" rx="7" ry="4" fill="none" stroke="#E4DCCB" stroke-width="2" transform="rotate(36.6 20.2 14.8)"/><ellipse cx="24" cy="-2" rx="7" ry="4" fill="none" stroke="#E4DCCB" stroke-width="2" transform="rotate(-48.5 24 -2)"/><ellipse cx="-77" cy="14" rx="7" ry="4" fill="none" stroke="#E4DCCB" stroke-width="2" transform="rotate(33.6 -76.7 13.5)"/><ellipse cx="74" cy="5" rx="7" ry="4" fill="none" stroke="#E4DCCB" stroke-width="2" transform="rotate(44 74.3 4.7)"/><ellipse cx="-8" cy="19" rx="7" ry="4" fill="none" stroke="#E4DCCB" stroke-width="2" transform="rotate(7.2 -7.8 18.9)"/><ellipse cx="-88" cy="0" rx="7" ry="4" fill="none" stroke="#E4DCCB" stroke-width="2" transform="rotate(21.9 -87.6 -0.3)"/><ellipse cx="74" cy="6" rx="7" ry="4" fill="none" stroke="#E4DCCB" stroke-width="2" transform="rotate(10.5 74 5.5)"/><ellipse cx="-90" cy="18" rx="7" ry="4" fill="none" stroke="#E4DCCB" stroke-width="2" transform="rotate(38 -90.2 17.5)"/><ellipse cx="41" cy="18" rx="7" ry="4" fill="none" stroke="#E4DCCB" stroke-width="2" transform="rotate(-44 41.3 18.1)"/><ellipse cx="-86" cy="13" rx="7" ry="4" fill="none" stroke="#E4DCCB" stroke-width="2" transform="rotate(-9.7 -85.9 12.8)"/><clipPath id="c3"><path d="M-134 -14C-128 -62 -50 -74 10 -70C86 -66 138 -48 132 -6C126 10 112 2 96 -10C60 -30 -40 -26 -96 -4C-116 4 -132 6 -134 -14Z"/></clipPath><path d="M-134 -14C-128 -62 -50 -74 10 -70C86 -66 138 -48 132 -6C126 10 112 2 96 -10C60 -30 -40 -26 -96 -4C-116 4 -132 6 -134 -14Z" fill="#D2283C"/><g clip-path="url(#c3)"><path d="M-150 -40C-60 -80 60 -80 150 -40L150 -100L-150 -100Z" fill="#E8495A"/><path d="M-134 -80Q-114 -40 -124 10M-104 -80Q-84 -40 -94 10M-74 -80Q-54 -40 -64 10M-44 -80Q-24 -40 -34 10M-14 -80Q6 -40 -4 10M16 -80Q36 -40 26 10M46 -80Q66 -40 56 10M76 -80Q96 -40 86 10M106 -80Q126 -40 116 10" stroke="#F08A93" stroke-width="4" fill="none" opacity="1"/></g><path d="M-60 -58Q0 -66 50 -60" stroke="#FFFFFF" stroke-width="6" fill="none" stroke-linecap="round" opacity=".55"/></g>
<path d="M680 530L680 564A40 22 0 0 0 760 564L760 530Z" fill="#ECE4D4"/><path d="M738 550L738 583A40 22 0 0 0 760 564L760 530Z" fill="#DDD3BF"/><ellipse cx="720" cy="530" rx="40" ry="22" fill="#FFFFFF"/><ellipse cx="685" cy="528" rx="3" ry="2" fill="#2B2B2B"/><ellipse cx="747" cy="519" rx="3" ry="2" fill="#EBDDB5"/><ellipse cx="749" cy="518" rx="3" ry="2" fill="#EBDDB5"/><ellipse cx="748" cy="519" rx="3" ry="2" fill="#2B2B2B"/><ellipse cx="753" cy="531" rx="3" ry="2" fill="#EBDDB5"/><ellipse cx="750" cy="539" rx="3" ry="2" fill="#EBDDB5"/><ellipse cx="714" cy="549" rx="3" ry="2" fill="#2B2B2B"/><ellipse cx="711" cy="512" rx="3" ry="2" fill="#EBDDB5"/><ellipse cx="712" cy="511" rx="3" ry="2" fill="#EBDDB5"/><ellipse cx="744" cy="521" rx="3" ry="2" fill="#2B2B2B"/><ellipse cx="710" cy="547" rx="3" ry="2" fill="#EBDDB5"/><ellipse cx="757" cy="529" rx="3" ry="2" fill="#EBDDB5"/><ellipse cx="689" cy="526" rx="3" ry="2" fill="#2B2B2B"/><ellipse cx="726" cy="549" rx="3" ry="2" fill="#EBDDB5"/><circle cx="733" cy="569" r="3" fill="#2B2B2B"/><circle cx="742" cy="551" r="3" fill="#E8D9AE"/><circle cx="711" cy="553" r="3" fill="#2B2B2B"/><circle cx="720" cy="573" r="3" fill="#E8D9AE"/><circle cx="699" cy="572" r="3" fill="#2B2B2B"/><circle cx="718" cy="560" r="3" fill="#E8D9AE"/><ellipse cx="720" cy="530" rx="25" ry="14" fill="#1F2E28"/><ellipse cx="720" cy="530" rx="22" ry="12" fill="#E0492F"/><circle cx="726" cy="532" r="4" fill="#B42F1E"/><circle cx="727" cy="533" r="4" fill="#F27A55"/><circle cx="715" cy="536" r="3" fill="#B42F1E"/><circle cx="715" cy="532" r="4" fill="#F27A55"/><circle cx="709" cy="525" r="3" fill="#F27A55"/><circle cx="721" cy="530" r="3" fill="#F27A55"/><ellipse cx="729" cy="527" rx="6" ry="3" fill="#8CC152"/><ellipse cx="717" cy="526" rx="10" ry="4" fill="#F28B3B"/><ellipse cx="714" cy="524" rx="4" ry="1" fill="#FFD0A8"/><circle cx="721" cy="523" r="2" fill="none" stroke="#5FAE3A" stroke-width="3"/>
<path d="M770 530L770 564A40 22 0 0 0 850 564L850 530Z" fill="#ECE4D4"/><path d="M828 550L828 583A40 22 0 0 0 850 564L850 530Z" fill="#DDD3BF"/><ellipse cx="810" cy="530" rx="40" ry="22" fill="#FFFFFF"/><ellipse cx="809" cy="511" rx="3" ry="2" fill="#2B2B2B"/><ellipse cx="777" cy="525" rx="3" ry="2" fill="#EBDDB5"/><ellipse cx="801" cy="511" rx="3" ry="2" fill="#EBDDB5"/><ellipse cx="827" cy="546" rx="3" ry="2" fill="#2B2B2B"/><ellipse cx="834" cy="516" rx="3" ry="2" fill="#EBDDB5"/><ellipse cx="808" cy="512" rx="3" ry="2" fill="#EBDDB5"/><ellipse cx="797" cy="514" rx="3" ry="2" fill="#2B2B2B"/><ellipse cx="786" cy="539" rx="3" ry="2" fill="#EBDDB5"/><ellipse cx="834" cy="544" rx="3" ry="2" fill="#EBDDB5"/><ellipse cx="799" cy="546" rx="3" ry="2" fill="#2B2B2B"/><ellipse cx="776" cy="524" rx="3" ry="2" fill="#EBDDB5"/><ellipse cx="785" cy="522" rx="3" ry="2" fill="#EBDDB5"/><ellipse cx="820" cy="513" rx="3" ry="2" fill="#2B2B2B"/><ellipse cx="782" cy="541" rx="3" ry="2" fill="#EBDDB5"/><circle cx="791" cy="552" r="3" fill="#2B2B2B"/><circle cx="782" cy="563" r="3" fill="#E8D9AE"/><circle cx="784" cy="571" r="3" fill="#2B2B2B"/><circle cx="830" cy="566" r="3" fill="#E8D9AE"/><circle cx="841" cy="564" r="3" fill="#2B2B2B"/><circle cx="814" cy="554" r="3" fill="#E8D9AE"/><ellipse cx="810" cy="530" rx="25" ry="14" fill="#1F2E28"/><ellipse cx="810" cy="530" rx="22" ry="12" fill="#E0492F"/><circle cx="822" cy="530" r="3" fill="#F27A55"/><circle cx="804" cy="530" r="3" fill="#B42F1E"/><circle cx="809" cy="530" r="4" fill="#B42F1E"/><circle cx="819" cy="528" r="3" fill="#F27A55"/><circle cx="824" cy="532" r="4" fill="#F27A55"/><circle cx="812" cy="535" r="3" fill="#B42F1E"/><ellipse cx="819" cy="527" rx="6" ry="3" fill="#8CC152"/><ellipse cx="807" cy="526" rx="10" ry="4" fill="#F28B3B"/><ellipse cx="804" cy="524" rx="4" ry="1" fill="#FFD0A8"/><circle cx="811" cy="523" r="2" fill="none" stroke="#5FAE3A" stroke-width="3"/>
<path d="M860 530L860 564A40 22 0 0 0 940 564L940 530Z" fill="#ECE4D4"/><path d="M918 550L918 583A40 22 0 0 0 940 564L940 530Z" fill="#DDD3BF"/><ellipse cx="900" cy="530" rx="40" ry="22" fill="#FFFFFF"/><ellipse cx="921" cy="545" rx="3" ry="2" fill="#2B2B2B"/><ellipse cx="928" cy="517" rx="3" ry="2" fill="#EBDDB5"/><ellipse cx="885" cy="514" rx="3" ry="2" fill="#EBDDB5"/><ellipse cx="871" cy="537" rx="3" ry="2" fill="#2B2B2B"/><ellipse cx="926" cy="519" rx="3" ry="2" fill="#EBDDB5"/><ellipse cx="932" cy="522" rx="3" ry="2" fill="#EBDDB5"/><ellipse cx="934" cy="537" rx="3" ry="2" fill="#2B2B2B"/><ellipse cx="892" cy="514" rx="3" ry="2" fill="#EBDDB5"/><ellipse cx="904" cy="550" rx="3" ry="2" fill="#EBDDB5"/><ellipse cx="904" cy="550" rx="3" ry="2" fill="#2B2B2B"/><ellipse cx="905" cy="510" rx="3" ry="2" fill="#EBDDB5"/><ellipse cx="922" cy="514" rx="3" ry="2" fill="#EBDDB5"/><ellipse cx="867" cy="524" rx="3" ry="2" fill="#2B2B2B"/><ellipse cx="885" cy="516" rx="3" ry="2" fill="#EBDDB5"/><circle cx="925" cy="566" r="3" fill="#2B2B2B"/><circle cx="910" cy="564" r="3" fill="#E8D9AE"/><circle cx="888" cy="570" r="3" fill="#2B2B2B"/><circle cx="903" cy="557" r="3" fill="#E8D9AE"/><circle cx="867" cy="550" r="3" fill="#2B2B2B"/><circle cx="868" cy="570" r="3" fill="#E8D9AE"/><ellipse cx="900" cy="530" rx="25" ry="14" fill="#1F2E28"/><ellipse cx="900" cy="530" rx="22" ry="12" fill="#E0492F"/><circle cx="894" cy="537" r="4" fill="#B42F1E"/><circle cx="896" cy="536" r="3" fill="#F27A55"/><circle cx="894" cy="525" r="4" fill="#F27A55"/><circle cx="910" cy="534" r="3" fill="#F27A55"/><circle cx="895" cy="529" r="4" fill="#B42F1E"/><circle cx="900" cy="528" r="4" fill="#B42F1E"/><ellipse cx="909" cy="527" rx="6" ry="3" fill="#8CC152"/><ellipse cx="897" cy="526" rx="10" ry="4" fill="#F28B3B"/><ellipse cx="894" cy="524" rx="4" ry="1" fill="#FFD0A8"/><circle cx="901" cy="523" r="2" fill="none" stroke="#5FAE3A" stroke-width="3"/>
<path d="M725 572L725 606A40 22 0 0 0 805 606L805 572Z" fill="#ECE4D4"/><path d="M783 592L783 625A40 22 0 0 0 805 606L805 572Z" fill="#DDD3BF"/><ellipse cx="765" cy="572" rx="40" ry="22" fill="#FFFFFF"/><ellipse cx="788" cy="584" rx="3" ry="2" fill="#2B2B2B"/><ellipse cx="748" cy="589" rx="3" ry="2" fill="#EBDDB5"/><ellipse cx="769" cy="552" rx="3" ry="2" fill="#EBDDB5"/><ellipse cx="735" cy="569" rx="3" ry="2" fill="#2B2B2B"/><ellipse cx="780" cy="589" rx="3" ry="2" fill="#EBDDB5"/><ellipse cx="794" cy="580" rx="3" ry="2" fill="#EBDDB5"/><ellipse cx="762" cy="554" rx="3" ry="2" fill="#2B2B2B"/><ellipse cx="796" cy="573" rx="3" ry="2" fill="#EBDDB5"/><ellipse cx="750" cy="558" rx="3" ry="2" fill="#EBDDB5"/><ellipse cx="796" cy="562" rx="3" ry="2" fill="#2B2B2B"/><ellipse cx="798" cy="575" rx="3" ry="2" fill="#EBDDB5"/><ellipse cx="769" cy="552" rx="3" ry="2" fill="#EBDDB5"/><ellipse cx="786" cy="561" rx="3" ry="2" fill="#2B2B2B"/><ellipse cx="761" cy="555" rx="3" ry="2" fill="#EBDDB5"/><circle cx="759" cy="604" r="3" fill="#2B2B2B"/><circle cx="799" cy="593" r="3" fill="#E8D9AE"/><circle cx="750" cy="612" r="3" fill="#2B2B2B"/><circle cx="738" cy="614" r="3" fill="#E8D9AE"/><circle cx="787" cy="597" r="3" fill="#2B2B2B"/><circle cx="741" cy="606" r="3" fill="#E8D9AE"/><ellipse cx="765" cy="572" rx="25" ry="14" fill="#1F2E28"/><ellipse cx="765" cy="572" rx="22" ry="12" fill="#F27A48"/><circle cx="758" cy="568" r="3" fill="#F27A55"/><circle cx="755" cy="572" r="4" fill="#F27A55"/><circle cx="754" cy="574" r="4" fill="#B42F1E"/><circle cx="753" cy="579" r="4" fill="#F27A55"/><circle cx="772" cy="572" r="4" fill="#B42F1E"/><circle cx="765" cy="576" r="4" fill="#F27A55"/><ellipse cx="774" cy="569" rx="6" ry="3" fill="#8CC152"/>
<path d="M815 572L815 606A40 22 0 0 0 895 606L895 572Z" fill="#ECE4D4"/><path d="M873 592L873 625A40 22 0 0 0 895 606L895 572Z" fill="#DDD3BF"/><ellipse cx="855" cy="572" rx="40" ry="22" fill="#FFFFFF"/><ellipse cx="862" cy="554" rx="3" ry="2" fill="#2B2B2B"/><ellipse cx="862" cy="552" rx="3" ry="2" fill="#EBDDB5"/><ellipse cx="825" cy="567" rx="3" ry="2" fill="#EBDDB5"/><ellipse cx="834" cy="558" rx="3" ry="2" fill="#2B2B2B"/><ellipse cx="823" cy="576" rx="3" ry="2" fill="#EBDDB5"/><ellipse cx="860" cy="556" rx="3" ry="2" fill="#EBDDB5"/><ellipse cx="833" cy="586" rx="3" ry="2" fill="#2B2B2B"/><ellipse cx="864" cy="591" rx="3" ry="2" fill="#EBDDB5"/><ellipse cx="832" cy="587" rx="3" ry="2" fill="#EBDDB5"/><ellipse cx="837" cy="555" rx="3" ry="2" fill="#2B2B2B"/><ellipse cx="885" cy="566" rx="3" ry="2" fill="#EBDDB5"/><ellipse cx="889" cy="567" rx="3" ry="2" fill="#EBDDB5"/><ellipse cx="854" cy="589" rx="3" ry="2" fill="#2B2B2B"/><ellipse cx="886" cy="568" rx="3" ry="2" fill="#EBDDB5"/><circle cx="821" cy="599" r="3" fill="#2B2B2B"/><circle cx="872" cy="601" r="3" fill="#E8D9AE"/><circle cx="871" cy="592" r="3" fill="#2B2B2B"/><circle cx="864" cy="613" r="3" fill="#E8D9AE"/><circle cx="885" cy="615" r="3" fill="#2B2B2B"/><circle cx="843" cy="595" r="3" fill="#E8D9AE"/><ellipse cx="855" cy="572" rx="25" ry="14" fill="#1F2E28"/><ellipse cx="855" cy="572" rx="22" ry="12" fill="#F27A48"/><circle cx="851" cy="578" r="4" fill="#B42F1E"/><circle cx="866" cy="576" r="4" fill="#B42F1E"/><circle cx="847" cy="573" r="3" fill="#B42F1E"/><circle cx="851" cy="569" r="3" fill="#F27A55"/><circle cx="842" cy="569" r="3" fill="#B42F1E"/><circle cx="869" cy="570" r="4" fill="#B42F1E"/><ellipse cx="864" cy="569" rx="6" ry="3" fill="#8CC152"/>
<g transform="translate(1070 600) scale(0.9)"><ellipse cx="0" cy="10" rx="70" ry="24" fill="#E3DACB"/><ellipse cx="0" cy="0" rx="70" ry="24" fill="#FFFFFF"/><ellipse cx="0" cy="2" rx="52" ry="16" fill="#3A1F14"/><ellipse cx="-14" cy="-3" rx="18" ry="4" fill="#7A4A30"/></g>
<path d="M110 640L380 618" stroke="#7A4A2A" stroke-width="12" stroke-linecap="round"/><path d="M110 654L380 626" stroke="#7A4A2A" stroke-width="12" stroke-linecap="round"/><path d="M110 637L178 632M110 651L178 644" stroke="#B37A4A" stroke-width="5" stroke-linecap="round"/>
<g transform="translate(150 560)"><path d="M-36 -40L-30 30Q-28 40 -16 40L16 40Q28 40 30 30L36 -40Z" fill="#E8E2D6"/><ellipse cy="-40" rx="36" ry="9" fill="#FFFFFF"/><ellipse cy="-39" rx="30" ry="6" fill="#9DB86A"/><path d="M-20 -10H20" stroke="#3F8C7E" stroke-width="6"/></g>
<path d="M150 500c-26 -11 -26 -34 0 -45s26 -34 0 -45" fill="none" stroke="#FFFFFF" stroke-width="7" stroke-linecap="round" opacity="1"/>
<path d="M460 436Q460 450 474 450Q460 450 460 464Q460 450 446 450Q460 450 460 436Z" fill="#FFFFFF" opacity="1"/>
<path d="M960 418Q960 430 972 430Q960 430 960 442Q960 430 948 430Q960 430 960 418Z" fill="#FFFFFF" opacity="1"/>
<path d="M700 350Q700 360 710 360Q700 360 700 370Q700 360 690 360Q700 360 700 350Z" fill="#FFFFFF" opacity="1"/>
</svg>
